<?xml version="1.0" encoding="iso-8859-1"?>
<!-- Generator: Adobe Illustrator 16.0.0, SVG Export Plug-In . SVG Version: 6.00 Build 0)  -->
<!DOCTYPE svg PUBLIC "-//W3C//DTD SVG 1.1//EN" "http://www.w3.org/Graphics/SVG/1.1/DTD/svg11.dtd">
<svg version="1.1" id="Capa_1" xmlns="http://www.w3.org/2000/svg" xmlns:xlink="http://www.w3.org/1999/xlink" x="0px" y="0px"
	 width="30px" height="30px" fill="black" viewBox="0 0 30 30" style="enable-background:new 0 0 30 30;" xml:space="preserve">
<g>
	<g>
		<path d="M30,18.3c0-2.682-1.877-5.024-4.673-6.291c0.164,0.585,0.259,1.189,0.276,1.809c0.279,0.166,0.549,0.345,0.801,0.54
			c1.41,1.088,2.188,2.487,2.188,3.942c0,1.454-0.775,2.854-2.188,3.941c-1.547,1.192-3.627,1.85-5.855,1.85
			c-1.504,0-2.938-0.301-4.188-0.859c-0.778,0.153-1.585,0.25-2.416,0.284c1.705,1.282,4.033,2.073,6.603,2.073
			c1.648,0,3.198-0.325,4.549-0.898l3.439,1.756l-0.695-3.511C29.191,21.676,30,20.061,30,18.3z"/>
		<path d="M24.625,12.837c-0.018-0.619-0.113-1.224-0.277-1.808c-1.201-4.274-6.133-7.475-12.034-7.475
			C5.513,3.554,0,7.806,0,13.051c0,2.295,1.055,4.399,2.812,6.041l-0.906,4.573l4.483-2.287c1.758,0.746,3.777,1.17,5.925,1.17
			c0.219,0,0.437-0.004,0.653-0.014c0.829-0.032,1.637-0.129,2.414-0.283c5.316-1.051,9.246-4.771,9.246-9.2
			C24.627,12.979,24.626,12.908,24.625,12.837z M6.506,14.615c-0.99,0-1.792-0.802-1.792-1.791c0-0.99,0.802-1.792,1.792-1.792
			c0.989,0,1.792,0.802,1.792,1.792C8.298,13.812,7.496,14.615,6.506,14.615z M12.314,14.615c-0.99,0-1.792-0.802-1.792-1.791
			c0-0.99,0.802-1.792,1.792-1.792c0.989,0,1.792,0.802,1.792,1.792C14.106,13.812,13.303,14.615,12.314,14.615z M18.122,14.615
			c-0.989,0-1.792-0.802-1.792-1.791c0-0.99,0.803-1.792,1.792-1.792s1.792,0.802,1.792,1.792
			C19.914,13.812,19.111,14.615,18.122,14.615z"/>
	</g>
</g>
<g>
</g>
<g>
</g>
<g>
</g>
<g>
</g>
<g>
</g>
<g>
</g>
<g>
</g>
<g>
</g>
<g>
</g>
<g>
</g>
<g>
</g>
<g>
</g>
<g>
</g>
<g>
</g>
<g>
</g>
</svg>
