<?xml version="1.0" encoding="UTF-8" standalone="no"?><!DOCTYPE svg PUBLIC "-//W3C//DTD SVG 1.1//EN" "http://www.w3.org/Graphics/SVG/1.1/DTD/svg11.dtd"><svg width="100%" height="100%" viewBox="0 0 600 450" version="1.1" xmlns="http://www.w3.org/2000/svg" xmlns:xlink="http://www.w3.org/1999/xlink" xml:space="preserve" xmlns:serif="http://www.serif.com/" style="fill-rule:evenodd;clip-rule:evenodd;stroke-linejoin:round;stroke-miterlimit:1.41421;"><g><path d="M237.945,392.853c-3.872,0 -7.57,-0.784 -10.329,-2.382l-111.729,-64.7c-6.069,-3.516 -5.298,-9.64 1.72,-13.68l6.416,-3.692l100.343,58.107c3.712,2.15 8.686,3.204 13.896,3.204c6.155,0 12.64,-1.472 17.755,-4.349c0.002,-0.001 0.004,-0.002 0.007,-0.003c0.016,-0.01 0.034,-0.02 0.051,-0.029c0.004,-0.003 0.009,-0.005 0.013,-0.008c0.015,-0.008 0.03,-0.017 0.045,-0.025c0.007,-0.005 0.016,-0.009 0.023,-0.014c0.012,-0.006 0.024,-0.013 0.035,-0.019c0.02,-0.012 0.039,-0.023 0.059,-0.034l223.683,-128.731l7.591,4.396c6.068,3.516 5.299,9.64 -1.721,13.68l-58.928,33.913l-2.182,0.275l-12.937,3.849l-8.553,5.987l-5.082,6.437l-146.806,84.487c-3.828,2.203 -8.724,3.331 -13.37,3.331Z" style="fill:#c68c66;fill-rule:nonzero;"/><path d="M224.366,366.506l-116.277,-67.335c-3.821,-2.213 -5.601,-5.195 -5.474,-8.298l-0.026,0.008l0.046,-16.872l6.467,7.575c0.42,-0.276 0.842,-0.552 1.301,-0.817l237.867,-136.893c9.444,-5.434 23.719,-6.006 31.884,-1.277l114.644,66.39c2.32,-2.541 7.185,-7.906 7.185,-7.906l-0.055,16.504l-0.003,-0.002c0.172,3.721 -2.476,7.684 -7.808,10.752l-237.867,136.894c-9.445,5.434 -23.719,6.006 -31.884,1.277Z" style="fill:#822218;fill-rule:nonzero;"/><path d="M161.49,325.198l6.696,3.866c0.89,0.514 1.611,-0.031 1.611,-1.218c0,-1.185 -0.721,-2.563 -1.611,-3.076l-6.696,-3.867c-0.89,-0.513 -1.61,0.032 -1.61,1.217c0,1.186 0.72,2.564 1.61,3.078Z" style="fill:#5c0701;fill-rule:nonzero;"/><path d="M348.27,143.874c9.444,-5.434 23.719,-6.006 31.884,-1.277l114.644,66.39c2.32,-2.541 7.185,-7.906 7.185,-7.906l-0.055,16.504l-0.003,-0.002c0.172,3.721 -2.476,7.684 -7.808,10.752l-237.867,136.894c-4.927,2.835 -11.166,4.333 -17.168,4.459l0.225,-163.106l108.963,-62.708Z" style="fill:#822218;fill-opacity:0.3;fill-rule:nonzero;"/><path d="M496.48,192.968l-116.277,-67.334c-8.165,-4.729 -22.441,-4.158 -31.884,1.277l-237.867,136.893c-9.444,5.435 -10.48,13.674 -2.315,18.403l116.278,67.335c8.165,4.73 22.439,4.158 31.884,-1.277l237.867,-136.893c9.443,-5.434 10.479,-13.674 2.314,-18.404Z" style="fill:#f7c169;fill-rule:nonzero;"/><path d="M224.326,351.343l-116.277,-67.335c-4.211,-2.438 -5.956,-5.811 -5.38,-9.252c0.206,2.794 1.997,5.442 5.468,7.451l116.278,67.335c8.165,4.73 22.439,4.159 31.884,-1.277l237.867,-136.893c4.573,-2.631 7.155,-5.921 7.695,-9.152c0.278,3.779 -2.355,7.829 -7.784,10.953l-237.867,136.893c-9.444,5.434 -23.719,6.007 -31.884,1.277Z" style="fill:#fff;fill-rule:nonzero;"/><path d="M487.524,195.622l-111.729,-64.701c-6.07,-3.514 -16.68,-3.09 -23.699,0.949l-234.489,134.949c-7.018,4.04 -7.789,10.164 -1.72,13.679l111.729,64.701c6.069,3.515 16.68,3.091 23.699,-0.95l234.488,-134.948c7.02,-4.039 7.789,-10.164 1.721,-13.679Z" style="fill:#821e00;fill-rule:nonzero;"/><path d="M255.76,311.595l-78.841,-45.519l5.032,-2.906l78.843,45.52l-5.034,2.905Z" style="fill:#f7c169;fill-rule:nonzero;"/><path d="M200.904,298.325l-39.921,-23.049l5.032,-2.906l39.921,23.049l-5.032,2.906Z" style="fill:#f7c169;fill-rule:nonzero;"/><path d="M220.277,309.509l-12.947,-7.474l5.032,-2.907l12.947,7.476l-5.032,2.905Z" style="fill:#aa5425;fill-rule:nonzero;"/><path d="M239.825,320.795l-12.947,-7.474l5.032,-2.907l12.947,7.476l-5.032,2.905Z" style="fill:#fff;fill-rule:nonzero;"/><path d="M201.35,289.381l-32.399,-18.705l5.032,-2.906l32.4,18.706l-5.033,2.905Z" style="fill:#fff;fill-rule:nonzero;"/><path d="M240.9,312.215l-32.399,-18.706l5.032,-2.905l32.399,18.706l-5.032,2.905Z" style="fill:#f7c169;fill-rule:nonzero;"/><path d="M216.914,272.23c-1.622,0.935 -4.25,0.935 -5.871,0c-1.622,-0.937 -1.622,-2.454 0,-3.39c1.621,-0.936 4.249,-0.936 5.871,0c1.621,0.936 1.621,2.453 0,3.39Z" style="fill:#aa5425;fill-rule:nonzero;"/><path d="M225.686,277.294c-1.621,0.937 -4.25,0.937 -5.871,0c-1.621,-0.935 -1.621,-2.453 0,-3.389c1.621,-0.936 4.25,-0.936 5.871,0c1.621,0.936 1.621,2.454 0,3.389Z" style="fill:#fff;fill-rule:nonzero;"/><path d="M234.459,282.36c-1.621,0.935 -4.25,0.935 -5.871,0c-1.621,-0.937 -1.621,-2.454 0,-3.391c1.621,-0.935 4.25,-0.935 5.871,0.001c1.621,0.936 1.621,2.453 0,3.39Z" style="fill:#d4ebfa;fill-rule:nonzero;"/><path d="M243.231,287.424c-1.621,0.937 -4.25,0.937 -5.871,0c-1.621,-0.936 -1.621,-2.454 0,-3.389c1.621,-0.937 4.25,-0.937 5.871,0c1.621,0.936 1.621,2.454 0,3.389Z" style="fill:#aa5425;fill-rule:nonzero;"/><path d="M252.004,292.489c-1.622,0.936 -4.249,0.936 -5.872,0c-1.621,-0.936 -1.621,-2.453 0,-3.39c1.622,-0.936 4.25,-0.936 5.872,0c1.622,0.937 1.622,2.454 0,3.39Z" style="fill:#fff;fill-rule:nonzero;"/><path d="M428.337,196.12l-13.275,-7.664l5.159,-2.978l13.276,7.664l-5.16,2.978Z" style="fill:#aa5425;fill-rule:nonzero;"/><path d="M446.822,206.793l-13.275,-7.665l5.16,-2.978l13.274,7.664l-5.159,2.979Z" style="fill:#fff;fill-rule:nonzero;"/><path d="M369.044,161.567l-13.276,-7.664l5.16,-2.98l13.275,7.665l-5.159,2.979Z" style="fill:#fff;fill-rule:nonzero;"/><path d="M425.378,203.845l-18.485,-10.672l5.159,-2.978l18.485,10.672l-5.159,2.978Z" style="fill:#fff;fill-rule:nonzero;"/><path d="M438.652,211.509l-8.11,-4.682l5.159,-2.979l8.111,4.683l-5.16,2.978Z" style="fill:#d4ebfa;fill-rule:nonzero;"/><path d="M343.431,397.259c-3.357,0 -6.897,-0.818 -9.663,-2.415c-5.054,-2.919 -5.604,-7.334 -1.226,-9.861l46.266,-26.712c1.981,-1.143 4.628,-1.703 7.403,-1.703c2.344,0 4.778,0.4 6.977,1.183l12.731,-7.452c-11.244,-8.378 -12.861,-19.67 -4.854,-28.888c0.079,0.077 0.158,0.152 0.239,0.227c0.215,-0.423 0.45,-0.844 0.708,-1.261c0.21,-0.217 0.425,-0.434 0.646,-0.648c1.912,2.7 4.765,5.23 8.561,7.422c7.662,4.423 17.704,6.635 27.745,6.635c10.041,0 20.083,-2.212 27.744,-6.635c0.074,-0.043 0.148,-0.086 0.222,-0.129l0,-0.001c0.012,-0.007 0.023,-0.013 0.035,-0.02c0.001,-0.001 0.003,-0.002 0.004,-0.002c0.01,-0.006 0.02,-0.012 0.03,-0.018c0.003,-0.002 0.007,-0.004 0.011,-0.006c0.007,-0.005 0.015,-0.009 0.022,-0.014c0.005,-0.003 0.011,-0.006 0.016,-0.009c0.005,-0.003 0.011,-0.006 0.016,-0.01c0.008,-0.004 0.015,-0.009 0.023,-0.013c0.003,-0.002 0.005,-0.003 0.007,-0.005c3.679,-2.183 6.441,-4.689 8.289,-7.357c0.469,0.677 0.88,1.364 1.232,2.058c1.35,-1.208 3.088,-2.157 3.809,-3.784c-0.574,-0.782 -1.217,-1.551 -1.929,-2.304l0.007,-0.042c16.562,10.703 15.956,27.136 -1.84,37.411c-9.204,5.313 -21.258,7.966 -33.313,7.967c-11.38,0 -22.761,-2.363 -31.759,-7.083l-12.841,7.516c2.168,2.613 1.688,5.616 -1.633,7.534l-46.267,26.712c-1.983,1.145 -4.638,1.707 -7.418,1.707Z" style="fill:#c68c66;fill-rule:nonzero;"/><path d="M399.14,321.158l5.988,-7.805l18.175,-8.446l15.661,-1.39l18.338,2.245l12.723,6.575l8.126,5.186l1.461,-8.446l-2.744,-9.73c0,0 -6.949,-4.598 -7.377,-5.025c-0.428,-0.428 -16.251,-6.094 -16.251,-6.094l-15.824,-1.069l-12.723,1.603l-12.937,3.849l-8.553,5.987l-6.415,8.126l-0.722,10.157l3.074,4.277Z" style="fill:#e0892d;fill-rule:nonzero;"/><path d="M484.008,311.133l0,16.44l-4.396,-7.128l4.396,-9.312Z" style="fill:#e0892d;fill-rule:nonzero;"/><path d="M411.219,311.987c15.323,-8.846 40.166,-8.846 55.488,0.001c4.82,2.782 8.121,6.109 9.908,9.637c1.35,-1.208 3.088,-2.157 3.809,-3.784c-2.195,-2.988 -5.391,-5.789 -9.61,-8.224c-17.592,-10.157 -46.112,-10.158 -63.702,-0.001c-3.851,2.222 -6.857,4.748 -9.022,7.442c0.709,1.657 1.784,3.258 3.214,4.58c1.786,-3.533 5.089,-6.865 9.915,-9.651Z" style="fill:#aa5425;fill-rule:nonzero;"/><path d="M438.964,333.786c-10.041,0 -20.083,-2.212 -27.745,-6.635c-1.549,-0.895 -2.937,-1.846 -4.168,-2.843c0.637,0.514 1.316,1.015 2.037,1.503c1.261,-1.031 2.679,-2.021 4.28,-2.944c7.661,-4.423 17.702,-6.635 27.744,-6.635c10.041,0 20.082,2.212 27.744,6.635c0.754,0.436 1.46,0.888 2.139,1.349c-1.158,0.946 -2.458,1.852 -3.901,2.708c-0.002,0.002 -0.005,0.003 -0.007,0.005c-0.008,0.004 -0.016,0.009 -0.023,0.013c-0.005,0.004 -0.011,0.007 -0.016,0.01c-0.006,0.003 -0.011,0.006 -0.016,0.009c-0.008,0.005 -0.015,0.009 -0.022,0.014c-0.004,0.002 -0.008,0.004 -0.011,0.006c-0.01,0.006 -0.02,0.012 -0.03,0.018c-0.001,0 -0.003,0.001 -0.004,0.002c-0.012,0.007 -0.023,0.013 -0.035,0.02l0,0.001c-0.074,0.043 -0.148,0.086 -0.222,0.129c-7.661,4.423 -17.703,6.635 -27.744,6.635Zm-36.306,-14.057c-0.039,-0.054 -0.077,-0.109 -0.114,-0.163c0,-0.001 0.001,-0.002 0.001,-0.002c0.038,0.054 0.076,0.108 0.115,0.163c-0.001,0 -0.002,0.001 -0.002,0.002Z" style="fill:#eaf6fd;fill-rule:nonzero;"/><path d="M438.964,333.786c-10.041,0 -20.083,-2.212 -27.745,-6.635c-3.796,-2.192 -6.649,-4.722 -8.561,-7.422c0,-0.001 0.001,-0.002 0.002,-0.002c1.134,1.598 2.597,3.137 4.391,4.581c1.231,0.997 2.619,1.948 4.168,2.843c7.662,4.423 17.704,6.635 27.745,6.635c10.041,0 20.083,-2.212 27.744,-6.635c-7.661,4.423 -17.703,6.635 -27.744,6.635Zm27.966,-6.764l0,-0.001l0,0.001Zm0.035,-0.021c0.001,-0.001 0.003,-0.002 0.004,-0.002c-0.001,0 -0.003,0.001 -0.004,0.002Zm0.034,-0.02c0.003,-0.002 0.007,-0.004 0.011,-0.006c-0.004,0.002 -0.008,0.004 -0.011,0.006Zm0.033,-0.02c0.005,-0.003 0.01,-0.006 0.016,-0.009c-0.005,0.003 -0.011,0.006 -0.016,0.009Zm0.032,-0.019c0.007,-0.004 0.015,-0.009 0.023,-0.013c-0.008,0.004 -0.015,0.009 -0.023,0.013Zm0.03,-0.018c1.443,-0.856 2.743,-1.762 3.901,-2.708c0,0 0.001,0.001 0.002,0.001c1.8,-1.466 3.262,-3.028 4.386,-4.65c-1.848,2.668 -4.61,5.174 -8.289,7.357Z" style="fill:#afc5de;fill-rule:nonzero;"/><path d="M409.088,325.811c-0.721,-0.488 -1.4,-0.989 -2.037,-1.503c-1.789,-1.448 -3.246,-2.991 -4.379,-4.593c-0.005,0.004 -0.008,0.008 -0.012,0.012c-0.039,-0.055 -0.077,-0.109 -0.115,-0.163c1.915,-2.759 4.805,-5.343 8.674,-7.577c7.661,-4.423 17.703,-6.634 27.743,-6.634c10.043,0 20.083,2.211 27.745,6.635c3.863,2.23 6.75,4.81 8.665,7.562c-1.12,1.628 -2.577,3.195 -4.377,4.666c-0.679,-0.461 -1.385,-0.913 -2.139,-1.349c-7.662,-4.423 -17.703,-6.635 -27.744,-6.635c-10.042,0 -20.083,2.212 -27.744,6.635c-1.601,0.923 -3.019,1.913 -4.28,2.944Z" style="fill:#e0f1fc;fill-rule:nonzero;"/><path d="M407.051,324.308c-1.794,-1.444 -3.257,-2.983 -4.391,-4.581c0.004,-0.004 0.007,-0.008 0.012,-0.012c1.133,1.602 2.59,3.145 4.379,4.593Zm63.946,-0.091c-0.001,0 -0.002,-0.001 -0.002,-0.001c1.8,-1.471 3.257,-3.038 4.377,-4.666c0.003,0.006 0.007,0.011 0.011,0.017c-1.124,1.622 -2.586,3.184 -4.386,4.65Z" style="fill:#c2d9ef;fill-rule:nonzero;"/><path d="M477.696,314.727c-1.874,-1.823 -4.166,-3.543 -6.882,-5.11c-8.795,-5.079 -20.325,-7.618 -31.853,-7.618c-11.528,0 -23.054,2.539 -31.849,7.617c-2.713,1.566 -5.007,3.282 -6.883,5.102c-0.058,-0.207 -0.11,-0.415 -0.157,-0.623c1.084,-4.774 4.794,-9.388 11.147,-13.055c7.662,-4.423 17.703,-6.635 27.744,-6.635c10.04,0 20.082,2.212 27.744,6.635c6.353,3.668 10.063,8.282 11.148,13.056c-0.048,0.211 -0.101,0.421 -0.159,0.631Z" style="fill:#f6a150;fill-rule:nonzero;"/><path d="M475.383,319.567c-0.004,-0.006 -0.008,-0.011 -0.011,-0.017c-1.915,-2.752 -4.802,-5.332 -8.665,-7.562c-7.662,-4.424 -17.702,-6.635 -27.745,-6.635c-10.04,0 -20.082,2.211 -27.743,6.634c-3.869,2.234 -6.759,4.818 -8.674,7.577c0,0 -0.001,0.001 -0.001,0.002c-1.088,-1.571 -1.86,-3.198 -2.315,-4.848c1.876,-1.82 4.17,-3.536 6.883,-5.102c8.795,-5.078 20.321,-7.617 31.849,-7.617c11.528,0 23.058,2.539 31.853,7.618c2.716,1.567 5.008,3.287 6.882,5.11c-0.456,1.648 -1.227,3.272 -2.313,4.84Z" style="fill:#f6a150;fill-rule:nonzero;"/><path d="M480.425,317.841c-0.307,0.692 -0.802,1.258 -1.369,1.778l-0.014,-0.172l-4.063,2.423l-4.989,4.633l-6.914,3.066l-9.552,3.421l-8.481,1.996l-11.69,0.499l-7.555,-0.784l-14.968,-3.92l-9.755,-8.624c0.079,-0.173 0.143,-0.347 0.229,-0.519c-1.43,-1.322 -2.505,-2.923 -3.214,-4.58c-0.264,0.329 -0.513,0.661 -0.751,0.994l-3.42,-7.123l0,17.076l0.007,-0.014c-0.005,6.66 4.384,13.322 13.187,18.404c17.591,10.156 46.111,10.156 63.702,0c13.372,-7.72 16.568,-19.085 9.61,-28.554Z" style="fill:#e0892d;fill-rule:nonzero;"/><path d="M404.592,325.267l-3.517,-3.11c0.079,-0.173 0.143,-0.347 0.229,-0.519c-1.43,-1.322 -2.505,-2.923 -3.214,-4.58c-0.264,0.329 -0.513,0.661 -0.751,0.994l-3.42,-7.123l0,17.076l0.007,-0.014c-0.005,5.987 3.555,11.971 10.666,16.813l0,-19.537Z" style="fill:#e0892d;fill-rule:nonzero;"/><path d="M466.708,327.151c-15.323,8.846 -40.165,8.846 -55.489,0c-15.322,-8.847 -15.322,-23.19 0,-32.036c15.323,-8.847 40.165,-8.846 55.488,0c15.323,8.846 15.323,23.19 0.001,32.036Zm4.106,-34.407c-17.592,-10.157 -46.112,-10.157 -63.702,-0.001c-17.591,10.156 -17.591,26.623 0.001,36.779c17.591,10.156 46.111,10.156 63.702,0.001c17.591,-10.156 17.591,-26.623 -0.001,-36.779Z" style="fill:#cb680b;fill-rule:nonzero;"/><path d="M377.649,348.16l24.966,-14.529l3.319,5.378l-25.08,14.607l-3.205,-5.456Z" style="fill:#f7c169;fill-rule:nonzero;"/><path d="M393.771,353.234c0,-6.141 -4.311,-13.609 -9.63,-16.679c-2.722,-1.572 -5.175,-1.679 -6.926,-0.593l-0.004,-0.005l-52.783,30.677l13.792,23.477l52.227,-30.406c0.358,-0.152 0.694,-0.346 1.004,-0.585l0.043,-0.025l-0.002,-0.003c1.42,-1.117 2.279,-3.123 2.279,-5.858Z" style="fill:#aa5425;fill-rule:nonzero;"/><path d="M328.248,373.135l59.077,-34.107c-0.998,-0.981 -2.067,-1.828 -3.184,-2.473c-2.722,-1.572 -5.175,-1.679 -6.926,-0.593l-0.004,-0.005l-52.783,30.677l3.82,6.501Z" style="fill:#f7c169;fill-rule:nonzero;"/><path d="M340.954,383.932c0,6.142 -4.311,8.63 -9.629,5.56c-5.318,-3.071 -9.63,-10.538 -9.63,-16.679c0,-6.141 4.312,-8.63 9.63,-5.56c5.318,3.072 9.629,10.538 9.629,16.679Z" style="fill:#f7c169;fill-rule:nonzero;"/><path d="M333.134,381.064c0,3.464 -2.808,6.272 -6.272,6.272c-3.464,0 -6.272,-2.808 -6.272,-6.272c0,-3.465 2.808,-6.273 6.272,-6.273c3.464,0 6.272,2.808 6.272,6.273Z" style="fill:#aa5425;fill-rule:nonzero;"/><path d="M325.715,378.765c0,1.023 -0.831,1.853 -1.854,1.853c-1.023,0 -1.853,-0.83 -1.853,-1.853c0,-1.023 0.83,-1.853 1.853,-1.853c1.023,0 1.854,0.83 1.854,1.853Z" style="fill:#fff;fill-rule:nonzero;"/><path d="M332.035,366.841c-2.846,-1.642 -5.396,-1.68 -7.158,-0.432c1.708,-0.797 3.965,-0.589 6.448,0.844c5.318,3.072 9.629,10.538 9.629,16.679c0,2.855 -0.94,4.908 -2.472,5.992c1.95,-0.909 3.183,-3.131 3.183,-6.404c0,-6.141 -4.312,-13.608 -9.63,-16.679Z" style="fill:#fff;fill-rule:nonzero;"/><path d="M466.707,295.115c-15.323,-8.846 -40.165,-8.847 -55.488,0c-7.979,4.606 -11.793,10.704 -11.461,16.739c0.304,-5.555 4.118,-11.057 11.461,-15.296c15.323,-8.847 40.165,-8.846 55.488,0c7.343,4.24 11.158,9.742 11.463,15.297c0.331,-6.035 -3.484,-12.133 -11.463,-16.74Z" style="fill:#fff;fill-rule:nonzero;"/><path d="M470.815,329.523c-17.591,10.155 -46.111,10.155 -63.702,-0.001c-8.479,-4.895 -12.857,-11.255 -13.164,-17.668c-0.33,6.894 4.05,13.85 13.164,19.111c17.591,10.156 46.111,10.156 63.702,0.001c9.113,-5.262 13.492,-12.217 13.163,-19.111c-0.306,6.413 -4.685,12.773 -13.163,17.668Z" style="fill:#fff;fill-rule:nonzero;"/><g><clipPath id="_clip1"><path d="M220.43,242.191l77.302,42.805l102.144,-58.783l12.377,25.417l-161.213,92.779l-58.973,-30.113l28.363,-72.105Z"/></clipPath><g clip-path="url(#_clip1)"><path d="M387.965,265.608l0,-0.001l5.345,-3.076l0,0.001l-5.345,3.076Z" style="fill:#aed0ee;fill-rule:nonzero;"/><path d="M387.965,265.607l0,-32.539l5.348,-3.078l-0.003,32.541l-5.345,3.076Z" style="fill:#ac1e22;fill-rule:nonzero;"/><path d="M367.596,277.33l0,-0.001l20.369,-11.722l0,0.001l-20.369,11.722Z" style="fill:#badaf3;fill-rule:nonzero;"/><path d="M367.596,277.329l0,-32.539l20.369,-11.722l0,32.539l-20.369,11.722Z" style="fill:#91191c;fill-rule:nonzero;"/><path d="M360.257,281.554l0,-0.001l4.493,-2.585l-4.493,2.586Z" style="fill:#d4ebfa;fill-rule:nonzero;"/><path d="M360.257,281.553l0.003,-32.541l4.49,-2.584l0,32.54l-4.493,2.585Z" style="fill:#970808;fill-rule:nonzero;"/><path d="M364.75,278.968l2.846,-1.639l0,0.001l-2.846,1.638Z" style="fill:#aed0ee;fill-rule:nonzero;"/><path d="M364.75,278.968l0,-32.54l2.846,-1.638l0,32.539l-2.846,1.639Z" style="fill:#ac1e22;fill-rule:nonzero;"/><path d="M354.911,284.631l0,-0.001l5.346,-3.077l0,0.001l-5.346,3.077Z" style="fill:#cfa6cd;fill-rule:nonzero;"/><path d="M354.911,284.63l0,-32.54l5.349,-3.078l-0.003,32.541l-5.346,3.077Z" style="fill:#ac1e22;fill-rule:nonzero;"/><path d="M334.543,296.353l0,-0.001l20.368,-11.722l0,0.001l-20.368,11.722Z" style="fill:#d9c7e1;fill-rule:nonzero;"/><path d="M334.543,296.352l0,-32.54l20.368,-11.722l0,32.54l-20.368,11.722Z" style="fill:#91191c;fill-rule:nonzero;"/><path d="M326.294,301.1l0,-0.001l5.402,-3.109l0,0.001l-5.402,3.109Z" style="fill:#dcb2d3;fill-rule:nonzero;"/><path d="M326.294,301.099l0.002,-32.541l5.4,-3.108l0,32.54l-5.402,3.109Z" style="fill:#970808;fill-rule:nonzero;"/><path d="M331.696,297.991l0,-0.001l2.847,-1.638l0,0.001l-2.847,1.638Z" style="fill:#cfa6cd;fill-rule:nonzero;"/><path d="M331.696,297.99l0,-32.54l2.847,-1.638l0,32.54l-2.847,1.638Z" style="fill:#ac1e22;fill-rule:nonzero;"/><path d="M257.249,340.835l0,-0.001l2.503,-1.44l-2.503,1.441Z" style="fill:#d4ebfa;fill-rule:nonzero;"/><path d="M257.249,340.834l-33.649,-19.426c-2.171,-1.254 -3.228,-2.911 -3.17,-4.558l0,0.053l39.322,22.491l-2.503,1.44Z" style="fill:#91191c;fill-rule:nonzero;"/><path d="M320.947,304.177l0,-0.001l5.347,-3.077l0,0.001l-5.347,3.077Z" style="fill:#aed0ee;fill-rule:nonzero;"/><path d="M320.947,304.176l0,-32.54l5.349,-3.078l-0.002,32.541l-5.347,3.077Z" style="fill:#ac0606;fill-rule:nonzero;"/><path d="M300.579,315.899l0,-0.001l20.368,-11.722l0,0.001l-20.368,11.722Z" style="fill:#badaf3;fill-rule:nonzero;"/><path d="M300.579,315.898l0,-32.54l20.368,-11.722l0,32.54l-20.368,11.722Z" style="fill:#91191c;fill-rule:nonzero;"/><path d="M259.752,339.394l37.98,-21.858l0,0.001l-37.98,21.857Z" style="fill:#d4ebfa;fill-rule:nonzero;"/><path d="M259.752,339.394l-39.322,-22.491l0,-0.053l0,-7.429l4.879,-2.817l-4.879,-2.817l0,-3.39l20.47,11.818l5.032,-2.905l-25.502,-14.724l0,-3.389l35.33,20.398l5.034,-2.905l-40.364,-23.304l0,-7.798c0.699,0.272 1.51,0.409 2.321,0.409c1.062,0 2.125,-0.234 2.935,-0.703c1.621,-0.935 1.621,-2.453 0,-3.389c-0.81,-0.468 -1.873,-0.702 -2.935,-0.702c-0.811,0 -1.622,0.136 -2.321,0.409l0,-31.421l18.969,10.504l0,30.693c-0.747,0.095 -1.458,0.311 -2.039,0.647c-1.621,0.935 -1.621,2.453 0,3.389c0.581,0.336 1.292,0.551 2.039,0.646l0,0.049l5.641,3.258c0.177,0.407 0.541,0.793 1.092,1.112c0.553,0.318 1.221,0.529 1.927,0.631l28.699,16.57l0,-36.308l20.974,11.614l0,32.54l-37.98,21.858Zm-27.842,-28.98l-5.032,2.907l12.947,7.474l5.032,-2.905l-12.947,-7.476Zm-0.388,-32.146c-1.062,0 -2.124,0.233 -2.934,0.701c-1.621,0.937 -1.621,2.454 0,3.391c0.81,0.468 1.873,0.701 2.935,0.701c1.063,0 2.125,-0.233 2.936,-0.701c1.621,-0.937 1.621,-2.454 0,-3.39c-0.811,-0.468 -1.874,-0.702 -2.937,-0.702Z" style="fill:#900a00;fill-rule:nonzero;"/><path d="M255.76,311.595l-35.33,-20.398l0,-5.811l40.364,23.304l-5.034,2.905Z" style="fill:#d4ebfa;fill-rule:nonzero;"/><path d="M220.43,309.421l0,-5.634l4.879,2.817l-4.879,2.817Z" style="fill:#c04101;fill-rule:nonzero;"/><path d="M239.825,320.795l-12.947,-7.474l5.032,-2.907l12.947,7.476l-5.032,2.905Z" style="fill:#f4fafe;fill-rule:nonzero;"/><path d="M240.9,312.215l-20.47,-11.818l0,-5.811l25.502,14.724l-5.032,2.905Z" style="fill:#d4ebfa;fill-rule:nonzero;"/><path d="M222.751,277.997c-0.811,0 -1.622,-0.137 -2.321,-0.409l0,-3.976c0.699,-0.273 1.51,-0.409 2.321,-0.409c1.062,0 2.125,0.234 2.935,0.702c1.621,0.936 1.621,2.454 0,3.389c-0.81,0.469 -1.873,0.703 -2.935,0.703Z" style="fill:#f4fafe;fill-rule:nonzero;"/><path d="M231.523,283.061c-1.062,0 -2.125,-0.233 -2.935,-0.701c-1.621,-0.937 -1.621,-2.454 0,-3.391c0.81,-0.468 1.872,-0.701 2.934,-0.701c1.063,0 2.126,0.234 2.937,0.702c1.621,0.936 1.621,2.453 0,3.39c-0.811,0.468 -1.873,0.701 -2.936,0.701Z" style="fill:#d4ebfa;fill-rule:nonzero;"/><path d="M239.399,288.07c-0.747,-0.095 -1.458,-0.31 -2.039,-0.646c-1.621,-0.936 -1.621,-2.454 0,-3.389c0.581,-0.336 1.292,-0.552 2.039,-0.647l0,4.682Z" style="fill:#c14326;fill-rule:nonzero;"/><path d="M248.059,293.12c-0.706,-0.102 -1.374,-0.313 -1.927,-0.631c-0.551,-0.319 -0.915,-0.705 -1.092,-1.112l3.019,1.743Z" style="fill:#f4fafe;fill-rule:nonzero;"/><path d="M297.732,317.537l0,-0.001l2.847,-1.638l0,0.001l-2.847,1.638Z" style="fill:#aed0ee;fill-rule:nonzero;"/><path d="M297.732,317.536l0,-32.54l2.847,-1.638l0,32.54l-2.847,1.638Z" style="fill:#ac1e22;fill-rule:nonzero;"/><path d="M276.758,309.69l-28.699,-16.57c0.331,0.047 0.67,0.071 1.009,0.071c1.063,0 2.125,-0.234 2.936,-0.702c1.622,-0.936 1.622,-2.453 0,-3.39c-0.811,-0.468 -1.873,-0.702 -2.936,-0.702c-1.062,0 -2.125,0.234 -2.936,0.702c-1.069,0.618 -1.433,1.488 -1.092,2.278l-5.641,-3.258l0,-0.049c0.295,0.038 0.596,0.057 0.897,0.057c1.062,0 2.125,-0.235 2.935,-0.703c1.621,-0.935 1.621,-2.453 0,-3.389c-0.81,-0.469 -1.873,-0.703 -2.935,-0.703c-0.301,0 -0.602,0.019 -0.897,0.056l0,-30.693l37.359,20.687l0,36.308Z" style="fill:#d7d5d5;fill-rule:nonzero;"/><path d="M240.296,288.127c-0.301,0 -0.602,-0.019 -0.897,-0.057l0,-4.682c0.295,-0.037 0.596,-0.056 0.897,-0.056c1.062,0 2.125,0.234 2.935,0.703c1.621,0.936 1.621,2.454 0,3.389c-0.81,0.468 -1.873,0.703 -2.935,0.703Z" style="fill:#c14326;fill-rule:nonzero;"/><path d="M249.068,293.191c-0.339,0 -0.678,-0.024 -1.009,-0.071l-3.019,-1.743c-0.341,-0.79 0.023,-1.66 1.092,-2.278c0.811,-0.468 1.874,-0.702 2.936,-0.702c1.063,0 2.125,0.234 2.936,0.702c1.622,0.937 1.622,2.454 0,3.39c-0.811,0.468 -1.873,0.702 -2.936,0.702Z" style="fill:#fff;fill-rule:nonzero;"/></g></g><g><clipPath id="_clip2"><path d="M212.833,237.984l84.899,47.012l117.701,-67.737l1.828,-101.847l-78.352,-12.737l-122.632,85.516l-3.444,49.793Z"/></clipPath><g clip-path="url(#_clip2)"><path d="M393.308,272.934l0.007,-101.097l-75.342,-42l-10.536,-0.695l-10.189,6.601l-6.252,5.441l73.406,116.407l23.968,14.126l4.938,1.217Z" style="fill:#f3735a;fill-rule:nonzero;"/><path d="M365.444,285.702l22.521,-13.001l0,-97.706l-23.215,10.792l0.694,99.915Z" style="fill:#fab0a2;fill-rule:nonzero;"/><path d="M287.448,141.966l0,100.932l79.093,45.24l1.055,-0.422l0,-101.08l-80.148,-44.67Z" style="fill:#f19e77;fill-rule:nonzero;"/><path d="M331.932,142.801l-15.718,-9.031c-1.92,-0.889 -4.727,-0.832 -6.506,0.195l-14.589,8.423c-1.131,0.652 -1.585,1.547 -1.376,2.397l39.72,23.735l31.905,19.584l22.597,-13.109l-56.033,-32.194Z" style="fill:#fff;fill-rule:nonzero;"/><path d="M364.75,185.05l0,104.359c0.717,-0.019 1.426,-0.18 1.974,-0.497c0.573,-0.33 0.86,-0.761 0.868,-1.194l0.004,-0.002l0,-0.016l0,-0.007l0,-101.057l-2.846,-1.586Z" style="fill:#f3735a;fill-rule:nonzero;"/><path d="M393.315,173.098l0,-1.261l-0.401,0l-0.123,0.857l0.524,0.404Z" style="fill:#fff;fill-rule:nonzero;"/><path d="M367.594,187.947l0,-1.292l-0.388,0.548l0.388,0.744Z" style="fill:#fff;fill-rule:nonzero;"/><path d="M362.513,187.833l-71.895,-41.508c-4.23,-2.443 -4.23,-6.416 0,-8.858l14.589,-8.423c4.229,-2.442 11.111,-2.442 15.342,0l71.894,41.509c1.163,0.671 1.163,1.76 0,2.432c-1.162,0.671 -3.048,0.671 -4.211,0l-71.895,-41.509c-1.908,-1.102 -5.011,-1.102 -6.918,0l-14.59,8.423c-1.907,1.101 -1.907,2.892 0,3.994l71.895,41.509c1.163,0.671 1.163,1.76 0,2.431c-1.162,0.671 -3.049,0.671 -4.211,0Z" style="fill:#f7745a;fill-rule:nonzero;"/><path d="M343.776,235.685l-37.359,-21.57l0,-37.453l37.359,21.57l0,37.453Z" style="fill:#fff;fill-rule:nonzero;"/><path d="M392.443,172.985c-1.162,0.671 -3.048,0.671 -4.211,0l-71.895,-41.509c-1.908,-1.102 -5.011,-1.102 -6.918,0l-14.59,8.423c-1.249,0.721 -1.674,1.737 -1.288,2.663c0.204,-0.488 0.63,-0.951 1.288,-1.332l14.59,-8.423c1.907,-1.102 5.01,-1.102 6.918,0l71.895,41.509c1.163,0.671 3.049,0.671 4.211,0c0.882,-0.509 1.092,-1.257 0.638,-1.882c-0.146,0.2 -0.356,0.388 -0.638,0.551Z" style="fill:#fff;fill-rule:nonzero;"/><path d="M366.724,187.833c-1.162,0.671 -3.049,0.671 -4.211,0l-71.895,-41.508c-1.821,-1.052 -2.854,-2.388 -3.107,-3.763c-0.334,1.817 0.699,3.704 3.107,5.094l71.895,41.508c1.162,0.672 3.049,0.672 4.211,0c0.882,-0.508 1.092,-1.255 0.637,-1.88c-0.144,0.199 -0.354,0.386 -0.637,0.549Z" style="fill:#fff;fill-rule:nonzero;"/><path d="M360.255,314.162l0.007,-101.096l-75.342,-42l-10.537,-0.696l-10.189,6.6l-6.252,5.442l73.407,116.408l23.967,14.126l4.939,1.216Z" style="fill:#cc6928;fill-rule:nonzero;"/><path d="M332.391,326.93l22.52,-13.001l0,-97.705l-23.215,10.791l0.695,99.915Z" style="fill:#fe7b3a;fill-rule:nonzero;"/><path d="M254.394,183.195l0,100.931l79.093,45.241l1.056,-0.422l0,-101.08l-80.149,-44.67Z" style="fill:#aa5425;fill-rule:nonzero;"/><path d="M298.879,184.03l-15.719,-9.032c-1.919,-0.888 -4.727,-0.832 -6.506,0.195l-14.589,8.424c-1.13,0.652 -1.585,1.546 -1.376,2.396l39.72,23.735l31.905,19.584l22.597,-13.108l-56.032,-32.194Z" style="fill:#fff;fill-rule:nonzero;"/><path d="M331.696,226.278l0,104.359c0.718,-0.018 1.427,-0.181 1.976,-0.497c0.571,-0.33 0.858,-0.761 0.868,-1.193l0.003,-0.002l0,-0.017l0,-0.007l0,-101.056l-2.847,-1.587Z" style="fill:#cc6928;fill-rule:nonzero;"/><path d="M360.262,214.327l0,-1.261l-0.402,0l-0.122,0.856l0.524,0.405Z" style="fill:#fff;fill-rule:nonzero;"/><path d="M334.541,229.174l0,-1.291l-0.388,0.548l0.388,0.743Z" style="fill:#fff;fill-rule:nonzero;"/><path d="M329.46,229.062l-71.896,-41.509c-4.229,-2.442 -4.229,-6.416 0,-8.857l14.589,-8.423c4.23,-2.443 11.112,-2.443 15.342,0l71.895,41.509c1.162,0.671 1.162,1.759 0,2.43c-1.163,0.672 -3.048,0.672 -4.212,0l-71.894,-41.508c-1.908,-1.101 -5.012,-1.101 -6.919,0l-14.589,8.423c-1.908,1.101 -1.908,2.893 0,3.994l71.895,41.509c1.163,0.671 1.163,1.76 0.001,2.432c-1.164,0.671 -3.049,0.671 -4.212,0Z" style="fill:#cc6928;fill-rule:nonzero;"/><path d="M310.723,276.913l-37.36,-21.57l0,-37.452l37.36,21.569l0,37.453Z" style="fill:#fff;fill-rule:nonzero;"/><path d="M359.39,214.212c-1.163,0.672 -3.048,0.672 -4.212,0l-71.894,-41.508c-1.908,-1.101 -5.012,-1.101 -6.919,0l-14.589,8.423c-1.249,0.721 -1.675,1.738 -1.288,2.662c0.203,-0.487 0.629,-0.951 1.288,-1.331l14.589,-8.422c1.907,-1.102 5.011,-1.102 6.919,0l71.894,41.508c1.164,0.671 3.049,0.671 4.212,0c0.881,-0.508 1.091,-1.257 0.637,-1.882c-0.145,0.201 -0.355,0.388 -0.637,0.55Z" style="fill:#fff;fill-rule:nonzero;"/><path d="M333.672,229.062c-1.164,0.671 -3.049,0.671 -4.212,-0.001l-71.896,-41.508c-1.821,-1.052 -2.853,-2.388 -3.106,-3.764c-0.334,1.819 0.699,3.705 3.106,5.095l71.896,41.509c1.163,0.671 3.048,0.671 4.212,0c0.88,-0.509 1.09,-1.257 0.636,-1.882c-0.145,0.2 -0.355,0.388 -0.636,0.551Z" style="fill:#fff;fill-rule:nonzero;"/><path d="M326.291,345.285l0.007,-101.097l-75.342,-42l-10.536,-0.695l-10.19,6.599l-6.252,5.443l73.406,116.407l23.968,14.126l4.939,1.217Z" style="fill:#f6aa1a;fill-rule:nonzero;"/><path d="M298.426,358.052l22.521,-13.002l0,-97.704l-23.215,10.792l0.694,99.914Z" style="fill:#f9cf7f;fill-rule:nonzero;"/><path d="M220.43,214.317l0,100.931l79.093,45.241l1.056,-0.422l0,-101.079l-80.149,-44.671Z" style="fill:#f7c169;fill-rule:nonzero;"/><path d="M264.915,215.152l-15.719,-9.032c-1.92,-0.888 -4.727,-0.832 -6.506,0.195l-14.589,8.423c-1.131,0.653 -1.586,1.548 -1.376,2.397l39.72,23.735l31.905,19.584l22.597,-13.108l-56.032,-32.194Z" style="fill:#fff;fill-rule:nonzero;"/><path d="M297.732,257.401l0,104.357c0.718,-0.017 1.427,-0.179 1.975,-0.496c0.571,-0.33 0.859,-0.761 0.868,-1.193l0.004,-0.002l0,-0.017l0,-0.007l0,-101.055l-2.847,-1.587Z" style="fill:#f5aa1e;fill-rule:nonzero;"/><path d="M326.298,245.449l0,-1.261l-0.402,0l-0.123,0.856l0.525,0.405Z" style="fill:#fff;fill-rule:nonzero;"/><path d="M300.577,260.296l0,-1.291l-0.389,0.548l0.389,0.743Z" style="fill:#fff;fill-rule:nonzero;"/><path d="M295.496,260.183l-71.896,-41.508c-4.229,-2.442 -4.229,-6.416 0,-8.857l14.589,-8.423c4.23,-2.442 11.111,-2.442 15.342,0l71.894,41.509c1.164,0.671 1.164,1.759 0,2.43c-1.162,0.672 -3.047,0.672 -4.21,0l-71.896,-41.508c-1.907,-1.101 -5.011,-1.101 -6.918,0l-14.59,8.422c-1.907,1.102 -1.907,2.894 0,3.996l71.896,41.508c1.163,0.671 1.163,1.761 0,2.432c-1.162,0.671 -3.049,0.671 -4.211,-0.001Z" style="fill:#f6aa1a;fill-rule:nonzero;"/><path d="M276.758,308.036l-37.359,-21.571l0,-37.452l37.359,21.569l0,37.454Z" style="fill:#fff;fill-rule:nonzero;"/><path d="M325.425,245.334c-1.162,0.672 -3.047,0.672 -4.21,0l-71.896,-41.508c-1.907,-1.101 -5.011,-1.101 -6.918,0l-14.59,8.422c-1.249,0.722 -1.674,1.739 -1.288,2.664c0.204,-0.488 0.63,-0.952 1.288,-1.332l14.59,-8.422c1.907,-1.102 5.011,-1.102 6.918,0l71.896,41.508c1.163,0.671 3.048,0.671 4.21,0c0.882,-0.508 1.092,-1.256 0.638,-1.881c-0.145,0.2 -0.355,0.387 -0.638,0.549Z" style="fill:#fff;fill-rule:nonzero;"/><path d="M299.707,260.184c-1.162,0.671 -3.049,0.671 -4.211,-0.001l-71.896,-41.509c-1.821,-1.051 -2.853,-2.387 -3.106,-3.762c-0.334,1.818 0.698,3.704 3.106,5.094l71.896,41.509c1.162,0.671 3.049,0.671 4.211,0c0.881,-0.509 1.092,-1.257 0.636,-1.882c-0.144,0.2 -0.354,0.388 -0.636,0.551Z" style="fill:#fff;fill-rule:nonzero;"/></g></g><path d="M466.463,163.898l-17.232,-9.948l17.231,-9.949l17.231,9.949l-17.23,9.948Z" style="fill:#c68c66;"/><path d="M483.693,141.319l-17.23,9.948l0,-19.896l17.23,-9.948l0,19.896Z" style="fill:#cc6928;fill-rule:nonzero;"/><path d="M466.463,131.371l-17.232,-9.948l17.231,-9.948l17.23,9.948l-17.229,9.948Z" style="fill:#e0892d;fill-rule:nonzero;"/><path d="M466.463,151.267l-17.232,-9.948l0,-19.896l17.232,9.948l0,19.896Z" style="fill:#f19e77;fill-rule:nonzero;"/><path d="M460.256,140.519l-4.819,-2.782l0,-5.566l4.819,2.783l0,5.565Z" style="fill:#fff;fill-rule:nonzero;"/><path d="M117.3,395.816l-17.939,-10.358l17.939,-10.356l17.938,10.357l-17.938,10.357Z" style="fill:#aa5425;fill-opacity:0.6;fill-rule:nonzero;"/><path d="M135.238,372.31l-17.938,10.356l0,-20.712l17.938,-10.357l0,20.713Z" style="fill:#822218;fill-rule:nonzero;"/><path d="M117.3,361.954l-17.939,-10.357l17.939,-10.357l17.938,10.357l-17.938,10.357Z" style="fill:#f7c169;fill-rule:nonzero;"/><path d="M117.3,382.666l-17.939,-10.356l0,-20.713l17.939,10.357l0,20.712Z" style="fill:#aa5425;fill-rule:nonzero;"/><path d="M110.839,371.476l-5.017,-2.897l0,-5.792l5.017,2.896l0,5.793Z" style="fill:#fff;fill-rule:nonzero;"/><path d="M284.054,77.608l-44.821,-25.877c-0.888,-0.511 -1.689,-0.531 -2.317,-0.185l0.003,-0.03l-4.348,2.512c0,0 1.925,0.702 3.056,1.116l0,32.641c0,2.655 1.614,5.74 3.606,6.891l42.84,24.733l0,3.83l4.393,-2.53l-0.024,-0.008c0.741,-0.453 1.218,-1.446 1.218,-2.874l0,-33.328c0,-2.655 -1.614,-5.74 -3.606,-6.891Z" style="fill:#cc6928;fill-rule:nonzero;"/><path d="M279.627,123.105l-44.822,-25.878c-1.991,-1.15 -3.606,-4.235 -3.606,-6.89l0,-33.327c0,-2.656 1.615,-3.876 3.606,-2.727l44.822,25.878c1.991,1.149 3.606,4.234 3.606,6.891l0,33.326c0,2.656 -1.615,3.876 -3.606,2.727Z" style="fill:#e0892d;fill-rule:nonzero;"/><path d="M280.726,79.368l-44.82,-25.877c-1.262,-0.728 -2.368,-0.501 -3.013,0.434c0.556,-0.145 1.208,-0.048 1.912,0.358l44.822,25.878c1.991,1.149 3.606,4.234 3.606,6.891l0,33.326c0,0.975 -0.221,1.75 -0.595,2.292c1.016,-0.265 1.695,-1.368 1.695,-3.085l0,-33.326c0,-2.656 -1.615,-5.741 -3.607,-6.891Z" style="fill:#fff;fill-rule:nonzero;"/><path d="M249.879,85.743c0,1.928 -1.355,2.71 -3.025,1.745c-1.67,-0.964 -3.024,-3.308 -3.024,-5.237c0,-1.929 1.354,-2.71 3.024,-1.746c1.67,0.964 3.025,3.309 3.025,5.238Z" style="fill:#fff;fill-rule:nonzero;"/><path d="M259.04,91.032c0,1.929 -1.354,2.71 -3.025,1.746c-1.67,-0.965 -3.023,-3.309 -3.023,-5.238c0,-1.929 1.353,-2.71 3.023,-1.746c1.671,0.965 3.025,3.309 3.025,5.238Z" style="fill:#fff;fill-rule:nonzero;"/><path d="M268.201,96.321c0,1.928 -1.354,2.711 -3.024,1.746c-1.67,-0.964 -3.024,-3.309 -3.024,-5.237c0,-1.929 1.354,-2.711 3.024,-1.746c1.67,0.964 3.024,3.309 3.024,5.237Z" style="fill:#fff;fill-rule:nonzero;"/></g></svg>