<?xml version="1.0" encoding="UTF-8" standalone="no" ?>
<!DOCTYPE svg PUBLIC "-//W3C//DTD SVG 1.1//EN" "http://www.w3.org/Graphics/SVG/1.1/DTD/svg11.dtd">
<svg xmlns="http://www.w3.org/2000/svg" xmlns:xlink="http://www.w3.org/1999/xlink" version="1.1" width="407.93196289062496" height="189.29000000000002" xml:space="preserve">
<desc>Created with Fabric.js 1.6.0-rc.1</desc>
<defs></defs>
  <g transform="translate(10.5 112.55)">
   <text font-family="ADAMCG PRO" font-size="40" font-weight="normal" style="stroke: none; stroke-width: 1; stroke-dasharray: none; stroke-linecap: butt; stroke-linejoin: miter; stroke-miterlimit: 10; fill: #000000; fill-rule: nonzero; opacity: 1;" ><tspan x="0" y="8.98" fill="#000000"></tspan></text>
 </g>
<g style="stroke: none; stroke-width: 1; stroke-dasharray: none; stroke-linecap: butt; stroke-linejoin: miter; stroke-miterlimit: 10; fill: none; fill-rule: nonzero; opacity: 1;" transform="translate(80.99000000000007 10) scale(0.33 0.33)" >
  <path d="M 256 512 c 141.002 0 256 -115.003 256 -256 C 512 114.998 397.002 0 256 0 S 0 115.003 0 256 S 115.003 512 256 512 z" style="stroke: none; stroke-width: 1; stroke-dasharray: none; stroke-linecap: butt; stroke-linejoin: miter; stroke-miterlimit: 10; fill: #f5c06c; fill-rule: nonzero; opacity: 1;" transform=" matrix(1 0 0 1 0 0) " stroke-linecap="round" />
  <path d="M 369.746 430.031 l -19.939 -85.461 c 0 0 68.238 -65.651 60.584 -149.81 c -7.653 -84.154 -92.449 -137.071 -178.52 -114.13 s -100.329 91.895 -100.731 103.206 c -0.406 11.316 10.198 40.243 2.54 60.007 c -7.649 19.768 -35.061 50.686 -32.512 59.929 c 2.554 9.242 26.138 10.836 26.138 10.836 s 0.277 8.942 -2.859 10.84 s -1.367 9.325 3.792 13.459 c 5.159 4.134 13.736 6.942 13.736 6.942 s -9.889 2.231 -8.605 9.242 c 1.275 7.016 4.78 10.522 12.115 10.836 c 7.335 0.319 9.247 -3.178 10.517 0.647 c 1.275 3.82 2.074 4.138 2.074 4.138 s -7.325 18.969 -0.947 32.992 c 6.379 14.027 16.258 14.036 27.736 11.164 c 11.478 -2.873 33.791 -9.247 33.791 -9.247 l 6.106 31.107 c 6.388 45.273 -24.443 68.547 -25.094 69.032 c 18.124 4.069 36.969 6.231 56.321 6.231 c 57.014 0 109.663 -18.646 152.212 -50.16 c -4.101 -1.977 -37.001 -30.35 -38.461 -31.809 L 369.746 430.031 z" style="stroke: none; stroke-width: 1; stroke-dasharray: none; stroke-linecap: butt; stroke-linejoin: miter; stroke-miterlimit: 10; fill: #821e00; fill-rule: nonzero; opacity: 1;" transform=" matrix(1 0 0 1 0 0) " stroke-linecap="round" />
  <path d="M 159.241 407.648 c 6.351 10.06 15.348 9.806 25.634 7.228 c 11.478 -2.873 33.791 -9.247 33.791 -9.247 l 6.106 31.107 c 2.18 15.45 0.023 28.332 -3.787 38.627 l 0.005 -0.005 c 21.311 -30.41 5.593 -53.652 8.402 -65.189 c 2.808 -11.542 47.407 -22.456 56.765 -29.629 c 9.358 -7.173 16.059 -26.978 16.059 -26.978 s -9.358 14.346 -19.334 23.08 c -9.981 8.734 -87.484 31.495 -102.297 36.488 c -14.069 4.739 -20.706 -4.531 -21.339 -5.478 L 159.241 407.648 z" style="stroke: none; stroke-width: 1; stroke-dasharray: none; stroke-linecap: butt; stroke-linejoin: miter; stroke-miterlimit: 10; fill: #df8833; fill-rule: nonzero; opacity: 1;" transform=" matrix(1 0 0 1 0 0) " stroke-linecap="round" />
  <path d="M 210.708 87.729 c 53.605 -19.639 117.095 -9.048 155.606 30.341 c 45.892 46.931 56.585 132.332 -23.556 222.699 l 26.992 89.267 l -19.939 -85.461 c 0 0 68.238 -65.651 60.584 -149.81 c -7.653 -84.154 -92.449 -137.071 -178.52 -114.13 C 224.269 82.662 217.235 85.055 210.708 87.729 z" style="stroke: none; stroke-width: 1; stroke-dasharray: none; stroke-linecap: butt; stroke-linejoin: miter; stroke-miterlimit: 10; fill: #df8833; fill-rule: nonzero; opacity: 1;" transform=" matrix(1 0 0 1 0 0) " stroke-linecap="round" />
  <path d="M 180.252 134.785 h 171.056 v 111.996 H 180.252 V 134.785 z" style="stroke: none; stroke-width: 1; stroke-dasharray: none; stroke-linecap: butt; stroke-linejoin: miter; stroke-miterlimit: 10; fill: #FBB429; fill-rule: nonzero; opacity: 1;" transform=" matrix(1 0 0 1 0 0) " stroke-linecap="round" />
  <path d="M 347.951 134.785 h -82.168 V 242.19 h 82.168 V 134.785 z" style="stroke: none; stroke-width: 1; stroke-dasharray: none; stroke-linecap: butt; stroke-linejoin: miter; stroke-miterlimit: 10; fill: #DFE1E3; fill-rule: nonzero; opacity: 1;" transform=" matrix(1 0 0 1 0 0) " stroke-linecap="round" />
  <path d="M 345.041 134.785 c -26.419 0 -51.656 -11.265 -79.263 0 v 100.606 h 79.263 V 134.785 z" style="stroke: none; stroke-width: 1; stroke-dasharray: none; stroke-linecap: butt; stroke-linejoin: miter; stroke-miterlimit: 10; fill: #f3ede0; fill-rule: nonzero; opacity: 1;" transform=" matrix(1 0 0 1 0 0) " stroke-linecap="round" />
  <path d="M 183.61 134.785 h 82.168 V 242.19 H 183.61 V 134.785 z" style="stroke: none; stroke-width: 1; stroke-dasharray: none; stroke-linecap: butt; stroke-linejoin: miter; stroke-miterlimit: 10; fill: #DFE1E3; fill-rule: nonzero; opacity: 1;" transform=" matrix(1 0 0 1 0 0) " stroke-linecap="round" />
  <path d="M 186.52 134.785 c 26.419 0 64.598 -11.071 79.258 0 v 100.606 H 186.52 V 134.785 z" style="stroke: none; stroke-width: 1; stroke-dasharray: none; stroke-linecap: butt; stroke-linejoin: miter; stroke-miterlimit: 10; fill: #f3ede0; fill-rule: nonzero; opacity: 1;" transform=" matrix(1 0 0 1 0 0) " stroke-linecap="round" />
  <path d="M 264.438 134.785 h 2.688 v 100.606 h -2.688 V 134.785 z" style="stroke: none; stroke-width: 1; stroke-dasharray: none; stroke-linecap: butt; stroke-linejoin: miter; stroke-miterlimit: 10; fill: #ECF0F1; fill-rule: nonzero; opacity: 1;" transform=" matrix(1 0 0 1 0 0) " stroke-linecap="round" />
  <path d="M 193.296 143.284 h 30.59 v 4.203 h -30.59 V 143.284 z" style="stroke: none; stroke-width: 1; stroke-dasharray: none; stroke-linecap: butt; stroke-linejoin: miter; stroke-miterlimit: 10; fill: #aa540e; fill-rule: nonzero; opacity: 1;" transform=" matrix(1 0 0 1 0 0) " stroke-linecap="round" />
  <path d="M 193.296 179.31 h 61.18 v 1.986 h -61.18 V 179.31 z M 274.822 179.31 L 274.822 179.31 h 61.18 v 1.986 h -61.18 V 179.31 z M 274.822 153.089 L 274.822 153.089 h 61.18 v 1.986 h -61.18 V 153.089 z M 274.822 173.135 L 274.822 173.135 h 26.789 v 1.986 h -26.789 V 173.135 z M 274.822 169.126 L 274.822 169.126 h 61.18 v 1.986 h -61.18 V 169.126 z M 274.822 165.116 L 274.822 165.116 h 61.18 v 1.991 h -61.18 V 165.116 z M 274.822 161.107 L 274.822 161.107 h 26.789 v 1.991 h -26.789 V 161.107 z M 274.822 157.098 L 274.822 157.098 h 61.18 v 1.991 h -61.18 V 157.098 z M 274.822 199.355 L 274.822 199.355 h 21.057 v 1.986 h -21.057 V 199.355 z M 274.822 195.346 L 274.822 195.346 h 61.18 v 1.986 h -61.18 V 195.346 z M 274.822 191.337 L 274.822 191.337 h 61.18 v 1.991 h -61.18 V 191.337 z M 274.822 187.328 L 274.822 187.328 h 61.18 v 1.991 h -61.18 V 187.328 z M 274.822 183.319 L 274.822 183.319 h 61.18 v 1.991 h -61.18 V 183.319 z M 193.296 153.094 L 193.296 153.094 h 61.18 v 1.986 h -61.18 V 153.094 z M 193.296 173.139 L 193.296 173.139 h 26.789 v 1.986 h -26.789 V 173.139 z M 193.296 169.13 L 193.296 169.13 h 61.18 v 1.986 h -61.18 V 169.13 z M 193.296 165.121 L 193.296 165.121 h 61.18 v 1.991 h -61.18 V 165.121 z M 193.296 161.112 L 193.296 161.112 h 61.18 v 1.991 h -61.18 V 161.112 z M 193.296 157.103 L 193.296 157.103 h 61.18 v 1.991 h -61.18 V 157.103 z M 193.296 199.36 L 193.296 199.36 h 21.057 v 1.986 h -21.057 V 199.36 z M 193.296 195.351 L 193.296 195.351 h 61.18 v 1.986 h -61.18 V 195.351 z M 193.296 191.342 L 193.296 191.342 h 61.18 v 1.991 h -61.18 V 191.342 z M 193.296 187.333 L 193.296 187.333 h 61.18 v 1.991 h -61.18 V 187.333 z M 193.296 183.324 L 193.296 183.324 h 61.18 v 1.991 h -61.18 V 183.324 z" style="stroke: none; stroke-width: 1; stroke-dasharray: none; stroke-linecap: butt; stroke-linejoin: miter; stroke-miterlimit: 10; fill: #DFE1E3; fill-rule: nonzero; opacity: 1;" transform=" matrix(1 0 0 1 0 0) " stroke-linecap="round" />
  <path d="M 281.131 130.397 l 8.277 -0.711 v 42.968 l -4.166 -3.035 l -4.111 3.035 V 130.397 z" style="stroke: none; stroke-width: 1; stroke-dasharray: none; stroke-linecap: butt; stroke-linejoin: miter; stroke-miterlimit: 10; fill: #aa540e; fill-rule: nonzero; opacity: 1;" transform=" matrix(1 0 0 1 0 0) " stroke-linecap="round" />
</g>
  <g transform="translate(310.48 104.82) scale(0.8 0.8)">
   <text font-family="Propaganda" font-size="40" font-weight="normal" style="stroke: none; stroke-width: 1; stroke-dasharray: none; stroke-linecap: butt; stroke-linejoin: miter; stroke-miterlimit: 10; fill: #821e00; fill-rule: nonzero; opacity: 1;" ><tspan x="-109.82" y="-17.23" style="stroke: none; stroke-width: 0; stroke-dasharray: none; stroke-linecap: butt; stroke-linejoin: miter; stroke-miterlimit: 4; fill: #821e00; fill-rule: ; opacity: 1;">P</tspan><tspan x="-78.66" y="-17.23" style="stroke: none; stroke-width: 0; stroke-dasharray: none; stroke-linecap: butt; stroke-linejoin: miter; stroke-miterlimit: 4; fill: #821e00; fill-rule: ; opacity: 1;">A</tspan><tspan x="-46.78" y="-17.23" style="stroke: none; stroke-width: 0; stroke-dasharray: none; stroke-linecap: butt; stroke-linejoin: miter; stroke-miterlimit: 4; fill: #821e00; fill-rule: ; opacity: 1;">R</tspan><tspan x="-15.74" y="-17.23" style="stroke: none; stroke-width: 0; stroke-dasharray: none; stroke-linecap: butt; stroke-linejoin: miter; stroke-miterlimit: 4; fill: #821e00; fill-rule: ; opacity: 1;">R</tspan><tspan x="15.3" y="-17.23" style="stroke: none; stroke-width: 0; stroke-dasharray: none; stroke-linecap: butt; stroke-linejoin: miter; stroke-miterlimit: 4; fill: #821e00; fill-rule: ; opacity: 1;">A</tspan><tspan x="47.18" y="-17.23" style="stroke: none; stroke-width: 0; stroke-dasharray: none; stroke-linecap: butt; stroke-linejoin: miter; stroke-miterlimit: 4; fill: #821e00; fill-rule: ; opacity: 1;">F</tspan><tspan x="75.18" y="-17.23" style="stroke: none; stroke-width: 0; stroke-dasharray: none; stroke-linecap: butt; stroke-linejoin: miter; stroke-miterlimit: 4; fill: #821e00; fill-rule: ; opacity: 1;">O</tspan><tspan x="-109.82" y="35.2" style="stroke: none; stroke-width: 0; stroke-dasharray: none; stroke-linecap: butt; stroke-linejoin: miter; stroke-miterlimit: 4; fill: #821e00; fill-rule: ; opacity: 1;"> </tspan><tspan x="-95.7" y="35.2" style="stroke: none; stroke-width: 0; stroke-dasharray: none; stroke-linecap: butt; stroke-linejoin: miter; stroke-miterlimit: 4; fill: #821e00; fill-rule: ; opacity: 1;">D</tspan><tspan x="-64.1" y="35.2" style="stroke: none; stroke-width: 0; stroke-dasharray: none; stroke-linecap: butt; stroke-linejoin: miter; stroke-miterlimit: 4; fill: #821e00; fill-rule: ; opacity: 1;">I</tspan><tspan x="-51.06" y="35.2" style="stroke: none; stroke-width: 0; stroke-dasharray: none; stroke-linecap: butt; stroke-linejoin: miter; stroke-miterlimit: 4; fill: #821e00; fill-rule: ; opacity: 1;">G</tspan><tspan x="-18.34" y="35.2" style="stroke: none; stroke-width: 0; stroke-dasharray: none; stroke-linecap: butt; stroke-linejoin: miter; stroke-miterlimit: 4; fill: #821e00; fill-rule: ; opacity: 1;">I</tspan><tspan x="-5.3" y="35.2" style="stroke: none; stroke-width: 0; stroke-dasharray: none; stroke-linecap: butt; stroke-linejoin: miter; stroke-miterlimit: 4; fill: #821e00; fill-rule: ; opacity: 1;">T</tspan><tspan x="20.74" y="35.2" style="stroke: none; stroke-width: 0; stroke-dasharray: none; stroke-linecap: butt; stroke-linejoin: miter; stroke-miterlimit: 4; fill: #821e00; fill-rule: ; opacity: 1;">A</tspan><tspan x="52.62" y="35.2" style="stroke: none; stroke-width: 0; stroke-dasharray: none; stroke-linecap: butt; stroke-linejoin: miter; stroke-miterlimit: 4; fill: #821e00; fill-rule: ; opacity: 1;">L</tspan></text>
 </g>
  <g transform="translate(86.49 52.82)">
   <text font-family="ADAMCG PRO" font-size="40" font-weight="normal" style="stroke: none; stroke-width: 1; stroke-dasharray: none; stroke-linecap: butt; stroke-linejoin: miter; stroke-miterlimit: 10; fill: #000000; fill-rule: nonzero; opacity: 1;" ><tspan x="0" y="8.98" fill="#000000"></tspan></text>
 </g>
  <g transform="translate(101.49 82.82)">
   <text font-family="ADAMCG PRO" font-size="40" font-weight="normal" style="stroke: none; stroke-width: 1; stroke-dasharray: none; stroke-linecap: butt; stroke-linejoin: miter; stroke-miterlimit: 10; fill: #000000; fill-rule: nonzero; opacity: 1;" ><tspan x="0" y="8.98" fill="#000000"></tspan></text>
 </g>
</svg>