<svg id="Layer_1" enable-background="new 0 0 512.622 512.622" height="512" viewBox="0 0 512.622 512.622" width="512" xmlns="http://www.w3.org/2000/svg"><path d="m448.784 512.622-198.501-198.852 14.795-10.21c15.088-10.43 28.037-23.379 38.496-38.496l10.225-14.766 198.823 198.486z" fill="#ff9100"/><path d="m286.065 286.065 194.637 194.637 31.919-31.919-198.823-198.484-10.225 14.764c-5.229 7.557-11.08 14.573-17.508 21.002z" fill="#ff641a"/><path d="m180 360c-99.258 0-180-80.742-180-180s80.742-180 180-180 180 80.742 180 180c0 36.489-10.972 71.792-31.714 102.085-12.568 18.149-28.081 33.662-46.157 46.143-30.322 20.8-65.625 31.772-102.129 31.772z" fill="#ffe6b3"/><path d="m328.287 282.085c20.741-30.293 31.712-65.596 31.712-102.085 0-99.258-80.742-180-180-180-49.629-.001-94.628 20.185-127.221 52.778l254.499 254.499c7.706-7.707 14.726-16.12 21.01-25.192z" fill="#ffca80"/><path d="m255 285h-105c-24.814 0-45-20.186-45-45v-135l30-15c0 8.276 6.724 15 15 15h105z" fill="#766e6e"/><path d="m255 255v-150h-105c-8.276 0-15-6.724-15-15l-29.998 15z" fill="#5b5555"/><g fill="#d9f2ff"><path d="m255 135h-120c-16.569 0-30-13.431-30-30 0-16.569 13.431-30 30-30h120z"/><path d="m135.002 135h119.998v-60h-120c-16.569 0-30 13.429-30 29.998z"/></g></svg>